<svg width="324" height="20" viewBox="0 0 324 20" fill="none" xmlns="http://www.w3.org/2000/svg">
<path d="M7.05547 15.2C5.69547 15.2 4.50214 14.9 3.47547 14.3C2.4488 13.7 1.6488 12.8867 1.07547 11.86C0.502136 10.8333 0.215469 9.68 0.215469 8.4C0.215469 7.10667 0.502136 5.95333 1.07547 4.94C1.6488 3.91333 2.4488 3.1 3.47547 2.5C4.50214 1.9 5.69547 1.6 7.05547 1.6C8.41547 1.6 9.6088 1.9 10.6355 2.5C11.6621 3.1 12.4621 3.91333 13.0355 4.94C13.6088 5.95333 13.8955 7.10667 13.8955 8.4C13.8955 9.68 13.6088 10.8333 13.0355 11.86C12.4621 12.8867 11.6621 13.7 10.6355 14.3C9.6088 14.9 8.41547 15.2 7.05547 15.2ZM7.05547 13.9C8.13547 13.9 9.08214 13.66 9.89547 13.18C10.7088 12.6867 11.3421 12.0267 11.7955 11.2C12.2488 10.36 12.4755 9.42667 12.4755 8.4C12.4755 7.37333 12.2488 6.44667 11.7955 5.62C11.3421 4.78 10.7088 4.12 9.89547 3.64C9.08214 3.14667 8.13547 2.9 7.05547 2.9C5.9888 2.9 5.04214 3.14667 4.21547 3.64C3.40214 4.12 2.7688 4.78 2.31547 5.62C1.86214 6.44667 1.63547 7.37333 1.63547 8.4C1.63547 9.42667 1.86214 10.36 2.31547 11.2C2.7688 12.0267 3.40214 12.6867 4.21547 13.18C5.04214 13.66 5.9888 13.9 7.05547 13.9ZM7.19547 12.14C6.06214 12.14 5.1688 11.8133 4.51547 11.16C3.87547 10.4933 3.55547 9.58667 3.55547 8.44C3.55547 7.29333 3.87547 6.39333 4.51547 5.74C5.1688 5.07333 6.06214 4.74 7.19547 4.74C7.98214 4.74 8.63547 4.91333 9.15547 5.26C9.67547 5.59333 10.0621 6.05333 10.3155 6.64L9.15547 7.22C8.98214 6.79333 8.73547 6.47333 8.41547 6.26C8.09547 6.04667 7.68214 5.94 7.17547 5.94C6.4688 5.94 5.9088 6.16 5.49547 6.6C5.09547 7.04 4.89547 7.65333 4.89547 8.44C4.89547 9.22667 5.09547 9.84 5.49547 10.28C5.9088 10.72 6.4688 10.94 7.17547 10.94C7.7088 10.94 8.1488 10.8333 8.49547 10.62C8.85547 10.3933 9.12214 10.0533 9.29547 9.6L10.3955 10.04C10.1421 10.6933 9.7488 11.2067 9.21547 11.58C8.68214 11.9533 8.0088 12.14 7.19547 12.14ZM28.4781 1.6C29.6381 1.6 30.6381 1.84 31.4781 2.32C32.3181 2.78667 33.0181 3.48 33.5781 4.4L32.2381 5.44C31.7448 4.58667 31.1848 3.98667 30.5581 3.64C29.9448 3.28 29.1981 3.1 28.3181 3.1C27.6115 3.1 27.0248 3.2 26.5581 3.4C26.1048 3.6 25.7715 3.86667 25.5581 4.2C25.3448 4.52 25.2381 4.88667 25.2381 5.3C25.2381 5.76667 25.3848 6.18 25.6781 6.54C25.9715 6.88667 26.5581 7.16 27.4381 7.36L30.2981 8C31.5648 8.28 32.4448 8.70667 32.9381 9.28C33.4448 9.84 33.6981 10.54 33.6981 11.38C33.6981 12.1267 33.4848 12.7933 33.0581 13.38C32.6448 13.9533 32.0581 14.4 31.2981 14.72C30.5381 15.04 29.6448 15.2 28.6181 15.2C27.6581 15.2 26.8115 15.0733 26.0781 14.82C25.3581 14.5533 24.7381 14.2 24.2181 13.76C23.6981 13.32 23.2715 12.8267 22.9381 12.28L24.3381 11.14C24.5915 11.6467 24.9181 12.0933 25.3181 12.48C25.7181 12.8667 26.1981 13.1667 26.7581 13.38C27.3315 13.5933 27.9848 13.7 28.7181 13.7C29.3981 13.7 29.9848 13.62 30.4781 13.46C30.9848 13.2867 31.3715 13.04 31.6381 12.72C31.9048 12.3867 32.0381 11.9867 32.0381 11.52C32.0381 11.0933 31.8981 10.7133 31.6181 10.38C31.3381 10.0333 30.8115 9.77333 30.0381 9.6L26.9381 8.9C26.1248 8.71333 25.4648 8.46 24.9581 8.14C24.4648 7.80667 24.1048 7.42 23.8781 6.98C23.6648 6.52667 23.5581 6.04 23.5581 5.52C23.5581 4.81333 23.7515 4.16667 24.1381 3.58C24.5381 2.98 25.1048 2.5 25.8381 2.14C26.5848 1.78 27.4648 1.6 28.4781 1.6ZM39.1106 2.16V12.24C39.1106 12.7333 39.2506 13.1 39.5306 13.34C39.8106 13.58 40.1706 13.7 40.6106 13.7C40.9973 13.7 41.3306 13.6333 41.6106 13.5C41.8906 13.3667 42.144 13.1867 42.3706 12.96L42.9306 14.3C42.624 14.58 42.2573 14.8 41.8306 14.96C41.4173 15.12 40.9373 15.2 40.3906 15.2C39.884 15.2 39.4106 15.1133 38.9706 14.94C38.5306 14.7533 38.1773 14.4667 37.9106 14.08C37.6573 13.68 37.524 13.16 37.5106 12.52V2.6L39.1106 2.16ZM42.7506 5V6.38H35.5106V5H42.7506ZM50.9695 8.54C50.9695 7.79333 50.7695 7.22 50.3695 6.82C49.9695 6.40667 49.4029 6.2 48.6695 6.2C47.9762 6.2 47.3895 6.35333 46.9095 6.66C46.4295 6.95333 46.0762 7.43333 45.8495 8.1L44.5495 7.3C44.8162 6.55333 45.3095 5.95333 46.0295 5.5C46.7495 5.03333 47.6429 4.8 48.7095 4.8C49.4295 4.8 50.0829 4.92667 50.6695 5.18C51.2562 5.42 51.7162 5.79333 52.0495 6.3C52.3962 6.79333 52.5695 7.43333 52.5695 8.22V13.06C52.5695 13.54 52.8229 13.78 53.3295 13.78C53.5829 13.78 53.8295 13.7467 54.0695 13.68L53.9895 14.94C53.7229 15.0733 53.3762 15.14 52.9495 15.14C52.5629 15.14 52.2162 15.0667 51.9095 14.92C51.6029 14.7733 51.3629 14.5533 51.1895 14.26C51.0162 13.9533 50.9295 13.5733 50.9295 13.12V12.92L51.3295 12.98C51.1695 13.5 50.8962 13.9267 50.5095 14.26C50.1229 14.58 49.6895 14.82 49.2095 14.98C48.7295 15.1267 48.2562 15.2 47.7895 15.2C47.2029 15.2 46.6562 15.1 46.1495 14.9C45.6429 14.7 45.2362 14.4 44.9295 14C44.6362 13.5867 44.4895 13.08 44.4895 12.48C44.4895 11.7333 44.7362 11.12 45.2295 10.64C45.7362 10.1467 46.4362 9.81333 47.3295 9.64L51.2895 8.86V10.18L48.0695 10.84C47.4162 10.9733 46.9295 11.16 46.6095 11.4C46.2895 11.64 46.1295 11.9733 46.1295 12.4C46.1295 12.8133 46.2895 13.1533 46.6095 13.42C46.9429 13.6733 47.4095 13.8 48.0095 13.8C48.3962 13.8 48.7629 13.7533 49.1095 13.66C49.4695 13.5533 49.7895 13.4 50.0695 13.2C50.3495 12.9867 50.5695 12.7267 50.7295 12.42C50.8895 12.1 50.9695 11.7267 50.9695 11.3V8.54ZM56.4577 15V5H57.7577L57.9777 6.64C58.2577 6.02667 58.6643 5.56667 59.1977 5.26C59.7443 4.95333 60.4043 4.8 61.1777 4.8C61.351 4.8 61.5377 4.81333 61.7377 4.84C61.951 4.86667 62.131 4.92 62.2777 5L61.9977 6.46C61.851 6.40667 61.691 6.36667 61.5177 6.34C61.3443 6.31333 61.0977 6.3 60.7777 6.3C60.3643 6.3 59.9443 6.42 59.5177 6.66C59.1043 6.9 58.7577 7.26667 58.4777 7.76C58.1977 8.24 58.0577 8.85333 58.0577 9.6V15H56.4577ZM66.3763 2.16V12.24C66.3763 12.7333 66.5163 13.1 66.7963 13.34C67.0763 13.58 67.4363 13.7 67.8763 13.7C68.2629 13.7 68.5963 13.6333 68.8763 13.5C69.1563 13.3667 69.4096 13.1867 69.6363 12.96L70.1963 14.3C69.8896 14.58 69.5229 14.8 69.0963 14.96C68.6829 15.12 68.2029 15.2 67.6563 15.2C67.1496 15.2 66.6763 15.1133 66.2363 14.94C65.7963 14.7533 65.4429 14.4667 65.1763 14.08C64.9229 13.68 64.7896 13.16 64.7763 12.52V2.6L66.3763 2.16ZM70.0163 5V6.38H62.7763V5H70.0163ZM73.1952 12.6C73.5152 12.6 73.7818 12.6867 73.9952 12.86C74.2218 13.02 74.3952 13.2467 74.5152 13.54C74.6352 13.82 74.6952 14.1533 74.6952 14.54C74.6952 14.98 74.6152 15.4133 74.4552 15.84C74.3085 16.2667 74.0752 16.66 73.7552 17.02C73.4352 17.38 73.0218 17.68 72.5152 17.92L71.6752 17.14C72.0352 17.02 72.3485 16.8533 72.6152 16.64C72.8952 16.4267 73.1218 16.1867 73.2952 15.92C73.4685 15.6533 73.5818 15.38 73.6352 15.1L73.5552 15.06C73.5018 15.1 73.4352 15.1333 73.3552 15.16C73.2752 15.1867 73.1552 15.2 72.9952 15.2C72.8352 15.2 72.6685 15.1533 72.4952 15.06C72.3352 14.9667 72.1952 14.8333 72.0752 14.66C71.9552 14.4733 71.8952 14.2333 71.8952 13.94C71.8952 13.7 71.9552 13.48 72.0752 13.28C72.1952 13.0667 72.3485 12.9 72.5352 12.78C72.7352 12.66 72.9552 12.6 73.1952 12.6ZM84.1441 15V13.7C85.4641 12.7267 86.5641 11.8733 87.4441 11.14C88.3374 10.4067 89.0507 9.74 89.5841 9.14C90.1174 8.54 90.4974 7.97333 90.7241 7.44C90.9507 6.89333 91.0641 6.32667 91.0641 5.74C91.0641 4.95333 90.8107 4.32 90.3041 3.84C89.8107 3.34667 89.1307 3.1 88.2641 3.1C87.3574 3.1 86.6307 3.4 86.0841 4C85.5374 4.58667 85.2174 5.37333 85.1241 6.36L83.7241 5.52C83.8441 4.74667 84.0907 4.06667 84.4641 3.48C84.8507 2.89333 85.3641 2.43333 86.0041 2.1C86.6574 1.76667 87.4307 1.6 88.3241 1.6C89.0041 1.6 89.6107 1.7 90.1441 1.9C90.6907 2.1 91.1574 2.38667 91.5441 2.76C91.9307 3.12 92.2241 3.55333 92.4241 4.06C92.6374 4.56667 92.7441 5.12667 92.7441 5.74C92.7441 6.56667 92.5441 7.38 92.1441 8.18C91.7441 8.96667 91.0841 9.79333 90.1641 10.66C89.2441 11.5267 87.9974 12.4867 86.4241 13.54V13.56C86.5707 13.5467 86.7707 13.54 87.0241 13.54C87.2907 13.5267 87.5507 13.52 87.8041 13.52C88.0707 13.5067 88.2707 13.5 88.4041 13.5H93.0241V15H84.1441ZM100.544 15.2C99.0509 15.2 97.8576 14.62 96.9642 13.46C96.0709 12.3 95.6242 10.6133 95.6242 8.4C95.6242 6.18667 96.0709 4.5 96.9642 3.34C97.8576 2.18 99.0509 1.6 100.544 1.6C102.051 1.6 103.244 2.18 104.124 3.34C105.018 4.5 105.464 6.18667 105.464 8.4C105.464 10.6133 105.018 12.3 104.124 13.46C103.244 14.62 102.051 15.2 100.544 15.2ZM100.544 13.76C101.251 13.76 101.844 13.56 102.324 13.16C102.818 12.7467 103.184 12.14 103.424 11.34C103.678 10.54 103.804 9.56 103.804 8.4C103.804 7.24 103.678 6.26 103.424 5.46C103.184 4.66 102.818 4.06 102.324 3.66C101.844 3.24667 101.251 3.04 100.544 3.04C99.8376 3.04 99.2376 3.24667 98.7442 3.66C98.2642 4.06 97.8976 4.66 97.6442 5.46C97.4042 6.26 97.2842 7.24 97.2842 8.4C97.2842 9.56 97.4042 10.54 97.6442 11.34C97.8976 12.14 98.2642 12.7467 98.7442 13.16C99.2376 13.56 99.8376 13.76 100.544 13.76ZM108.246 15V13.7C109.566 12.7267 110.666 11.8733 111.546 11.14C112.439 10.4067 113.152 9.74 113.686 9.14C114.219 8.54 114.599 7.97333 114.826 7.44C115.052 6.89333 115.166 6.32667 115.166 5.74C115.166 4.95333 114.912 4.32 114.406 3.84C113.912 3.34667 113.232 3.1 112.366 3.1C111.459 3.1 110.732 3.4 110.186 4C109.639 4.58667 109.319 5.37333 109.226 6.36L107.826 5.52C107.946 4.74667 108.192 4.06667 108.566 3.48C108.952 2.89333 109.466 2.43333 110.106 2.1C110.759 1.76667 111.532 1.6 112.426 1.6C113.106 1.6 113.712 1.7 114.246 1.9C114.792 2.1 115.259 2.38667 115.646 2.76C116.032 3.12 116.326 3.55333 116.526 4.06C116.739 4.56667 116.846 5.12667 116.846 5.74C116.846 6.56667 116.646 7.38 116.246 8.18C115.846 8.96667 115.186 9.79333 114.266 10.66C113.346 11.5267 112.099 12.4867 110.526 13.54V13.56C110.672 13.5467 110.872 13.54 111.126 13.54C111.392 13.5267 111.652 13.52 111.906 13.52C112.172 13.5067 112.372 13.5 112.506 13.5H117.126V15H108.246ZM119.906 15V13.7C121.226 12.7267 122.326 11.8733 123.206 11.14C124.099 10.4067 124.812 9.74 125.346 9.14C125.879 8.54 126.259 7.97333 126.486 7.44C126.712 6.89333 126.826 6.32667 126.826 5.74C126.826 4.95333 126.572 4.32 126.066 3.84C125.572 3.34667 124.892 3.1 124.026 3.1C123.119 3.1 122.392 3.4 121.846 4C121.299 4.58667 120.979 5.37333 120.886 6.36L119.486 5.52C119.606 4.74667 119.852 4.06667 120.226 3.48C120.612 2.89333 121.126 2.43333 121.766 2.1C122.419 1.76667 123.192 1.6 124.086 1.6C124.766 1.6 125.372 1.7 125.906 1.9C126.452 2.1 126.919 2.38667 127.306 2.76C127.692 3.12 127.986 3.55333 128.186 4.06C128.399 4.56667 128.506 5.12667 128.506 5.74C128.506 6.56667 128.306 7.38 127.906 8.18C127.506 8.96667 126.846 9.79333 125.926 10.66C125.006 11.5267 123.759 12.4867 122.186 13.54V13.56C122.332 13.5467 122.532 13.54 122.786 13.54C123.052 13.5267 123.312 13.52 123.566 13.52C123.832 13.5067 124.032 13.5 124.166 13.5H128.786V15H119.906ZM132.746 12.6C133.133 12.6 133.446 12.72 133.686 12.96C133.926 13.2 134.046 13.5133 134.046 13.9C134.046 14.2867 133.926 14.6 133.686 14.84C133.446 15.08 133.133 15.2 132.746 15.2C132.359 15.2 132.046 15.08 131.806 14.84C131.566 14.6 131.446 14.2867 131.446 13.9C131.446 13.5133 131.566 13.2 131.806 12.96C132.046 12.72 132.359 12.6 132.746 12.6ZM154.094 15H152.394L150.994 11.34H145.014L143.614 15H141.934L147.074 1.8H148.974L154.094 15ZM145.594 9.84H150.414L147.994 3.34L145.594 9.84ZM157.997 0.4V12.46C157.997 12.9667 158.091 13.32 158.277 13.52C158.464 13.7067 158.764 13.8 159.177 13.8C159.444 13.8 159.664 13.78 159.837 13.74C160.011 13.7 160.244 13.6267 160.537 13.52L160.277 14.92C160.064 15.0133 159.831 15.08 159.577 15.12C159.324 15.1733 159.064 15.2 158.797 15.2C157.984 15.2 157.377 14.98 156.977 14.54C156.591 14.1 156.397 13.4267 156.397 12.52V0.4H157.997ZM164.11 0.4V12.46C164.11 12.9667 164.204 13.32 164.39 13.52C164.577 13.7067 164.877 13.8 165.29 13.8C165.557 13.8 165.777 13.78 165.95 13.74C166.124 13.7 166.357 13.6267 166.65 13.52L166.39 14.92C166.177 15.0133 165.944 15.08 165.69 15.12C165.437 15.1733 165.177 15.2 164.91 15.2C164.097 15.2 163.49 14.98 163.09 14.54C162.704 14.1 162.51 13.4267 162.51 12.52V0.4H164.11ZM174.817 15V5H176.117L176.337 6.64C176.617 6.02667 177.024 5.56667 177.557 5.26C178.104 4.95333 178.764 4.8 179.537 4.8C179.71 4.8 179.897 4.81333 180.097 4.84C180.31 4.86667 180.49 4.92 180.637 5L180.357 6.46C180.21 6.40667 180.05 6.36667 179.877 6.34C179.704 6.31333 179.457 6.3 179.137 6.3C178.724 6.3 178.304 6.42 177.877 6.66C177.464 6.9 177.117 7.26667 176.837 7.76C176.557 8.24 176.417 8.85333 176.417 9.6V15H174.817ZM183.781 3.08C183.421 3.08 183.128 2.97333 182.901 2.76C182.688 2.53333 182.581 2.24 182.581 1.88C182.581 1.52 182.688 1.23333 182.901 1.02C183.128 0.793333 183.421 0.68 183.781 0.68C184.141 0.68 184.428 0.793333 184.641 1.02C184.868 1.23333 184.981 1.52 184.981 1.88C184.981 2.24 184.868 2.53333 184.641 2.76C184.428 2.97333 184.141 3.08 183.781 3.08ZM184.581 5V15H182.981V5H184.581ZM196.714 3.16L197.074 4.58C197.06 4.58 197.04 4.58 197.014 4.58C196.987 4.58 196.96 4.58 196.934 4.58C196.28 4.58 195.774 4.71333 195.414 4.98C195.067 5.23333 194.894 5.64667 194.894 6.22L193.914 5.72C193.914 5.2 194.034 4.74667 194.274 4.36C194.514 3.97333 194.84 3.68 195.254 3.48C195.667 3.26667 196.12 3.16 196.614 3.16C196.627 3.16 196.64 3.16 196.654 3.16C196.68 3.16 196.7 3.16 196.714 3.16ZM193.674 13.72C194.62 13.72 195.36 13.94 195.894 14.38C196.427 14.8067 196.694 15.38 196.694 16.1C196.694 16.7533 196.474 17.32 196.034 17.8C195.607 18.28 195.027 18.6467 194.294 18.9C193.574 19.1667 192.76 19.3 191.854 19.3C190.28 19.3 189.1 19.0333 188.314 18.5C187.54 17.9667 187.154 17.3267 187.154 16.58C187.154 16.0467 187.327 15.5667 187.674 15.14C188.034 14.7267 188.634 14.4933 189.474 14.44L189.334 14.74C188.88 14.62 188.494 14.42 188.174 14.14C187.867 13.8467 187.714 13.4267 187.714 12.88C187.714 12.3333 187.914 11.8667 188.314 11.48C188.727 11.08 189.334 10.8333 190.134 10.74L191.194 11.28H190.994C190.34 11.3467 189.874 11.5133 189.594 11.78C189.327 12.0333 189.194 12.3133 189.194 12.62C189.194 12.9933 189.327 13.2733 189.594 13.46C189.874 13.6333 190.26 13.72 190.754 13.72H193.674ZM191.834 17.96C192.607 17.96 193.24 17.88 193.734 17.72C194.24 17.56 194.614 17.3533 194.854 17.1C195.094 16.8467 195.214 16.5733 195.214 16.28C195.214 15.92 195.067 15.6333 194.774 15.42C194.494 15.2067 193.98 15.1 193.234 15.1H190.154C189.727 15.1 189.367 15.2067 189.074 15.42C188.78 15.6467 188.634 15.9533 188.634 16.34C188.634 16.8333 188.914 17.2267 189.474 17.52C190.047 17.8133 190.834 17.96 191.834 17.96ZM191.694 4.8C192.494 4.8 193.2 4.94667 193.814 5.24C194.44 5.52 194.927 5.91333 195.274 6.42C195.62 6.92667 195.794 7.51333 195.794 8.18C195.794 8.83333 195.62 9.42 195.274 9.94C194.927 10.4467 194.44 10.8467 193.814 11.14C193.2 11.42 192.494 11.56 191.694 11.56C190.374 11.56 189.36 11.2467 188.654 10.62C187.947 9.98 187.594 9.16667 187.594 8.18C187.594 7.51333 187.767 6.92667 188.114 6.42C188.474 5.91333 188.96 5.52 189.574 5.24C190.187 4.94667 190.894 4.8 191.694 4.8ZM191.694 6.1C191 6.1 190.42 6.29333 189.954 6.68C189.487 7.05333 189.254 7.55333 189.254 8.18C189.254 8.79333 189.487 9.29333 189.954 9.68C190.42 10.0667 191 10.26 191.694 10.26C192.387 10.26 192.967 10.0667 193.434 9.68C193.9 9.29333 194.134 8.79333 194.134 8.18C194.134 7.55333 193.9 7.05333 193.434 6.68C192.967 6.29333 192.387 6.1 191.694 6.1ZM198.938 15V0.4H200.538V6.5C200.885 5.9 201.345 5.46667 201.918 5.2C202.491 4.93333 203.118 4.8 203.798 4.8C204.518 4.8 205.171 4.94 205.758 5.22C206.345 5.48667 206.811 5.9 207.158 6.46C207.518 7.02 207.698 7.73333 207.698 8.6V15H206.098V9.16C206.098 8.05333 205.858 7.28667 205.378 6.86C204.911 6.42 204.331 6.2 203.638 6.2C203.158 6.2 202.678 6.31333 202.198 6.54C201.718 6.76667 201.318 7.14 200.998 7.66C200.691 8.16667 200.538 8.84667 200.538 9.7V15H198.938ZM213.544 2.16V12.24C213.544 12.7333 213.684 13.1 213.964 13.34C214.244 13.58 214.604 13.7 215.044 13.7C215.431 13.7 215.764 13.6333 216.044 13.5C216.324 13.3667 216.578 13.1867 216.804 12.96L217.364 14.3C217.058 14.58 216.691 14.8 216.264 14.96C215.851 15.12 215.371 15.2 214.824 15.2C214.318 15.2 213.844 15.1133 213.404 14.94C212.964 14.7533 212.611 14.4667 212.344 14.08C212.091 13.68 211.958 13.16 211.944 12.52V2.6L213.544 2.16ZM217.184 5V6.38H209.944V5H217.184ZM223.163 15.2C222.19 15.2 221.29 14.9933 220.463 14.58C219.65 14.1667 219.023 13.58 218.583 12.82L219.943 11.84C220.236 12.4533 220.663 12.9333 221.223 13.28C221.796 13.6267 222.483 13.8 223.283 13.8C223.99 13.8 224.543 13.6667 224.943 13.4C225.343 13.12 225.543 12.76 225.543 12.32C225.543 12.04 225.45 11.7867 225.263 11.56C225.09 11.32 224.75 11.1467 224.243 11.04L221.843 10.54C220.87 10.34 220.17 10.0067 219.743 9.54C219.33 9.07333 219.123 8.49333 219.123 7.8C219.123 7.25333 219.276 6.75333 219.583 6.3C219.903 5.84667 220.35 5.48667 220.923 5.22C221.51 4.94 222.196 4.8 222.983 4.8C223.97 4.8 224.803 4.99333 225.483 5.38C226.163 5.76667 226.67 6.31333 227.003 7.02L225.663 7.9C225.436 7.31333 225.07 6.88667 224.563 6.62C224.056 6.34 223.53 6.2 222.983 6.2C222.503 6.2 222.09 6.26667 221.743 6.4C221.41 6.53333 221.15 6.72 220.963 6.96C220.79 7.18667 220.703 7.44667 220.703 7.74C220.703 8.03333 220.803 8.30667 221.003 8.56C221.203 8.8 221.576 8.97333 222.123 9.08L224.623 9.6C225.556 9.78667 226.21 10.0933 226.583 10.52C226.956 10.9467 227.143 11.4667 227.143 12.08C227.143 12.7067 226.976 13.26 226.643 13.74C226.31 14.2067 225.843 14.5667 225.243 14.82C224.643 15.0733 223.95 15.2 223.163 15.2ZM236.926 15V5H238.226L238.446 6.64C238.726 6.02667 239.133 5.56667 239.666 5.26C240.213 4.95333 240.873 4.8 241.646 4.8C241.82 4.8 242.006 4.81333 242.206 4.84C242.42 4.86667 242.6 4.92 242.746 5L242.466 6.46C242.32 6.40667 242.16 6.36667 241.986 6.34C241.813 6.31333 241.566 6.3 241.246 6.3C240.833 6.3 240.413 6.42 239.986 6.66C239.573 6.9 239.226 7.26667 238.946 7.76C238.666 8.24 238.526 8.85333 238.526 9.6V15H236.926ZM248.958 15.2C248.011 15.2 247.165 14.9933 246.418 14.58C245.685 14.1667 245.111 13.5733 244.698 12.8C244.285 12.0133 244.078 11.08 244.078 10C244.078 8.92 244.285 7.99333 244.698 7.22C245.111 6.43333 245.678 5.83333 246.398 5.42C247.118 5.00667 247.938 4.8 248.858 4.8C249.791 4.8 250.585 5 251.238 5.4C251.905 5.8 252.411 6.34667 252.758 7.04C253.105 7.72 253.278 8.48667 253.278 9.34C253.278 9.56667 253.271 9.77333 253.258 9.96C253.245 10.1467 253.225 10.3133 253.198 10.46H245.118V9.04H252.498L251.678 9.2C251.678 8.24 251.411 7.5 250.878 6.98C250.358 6.46 249.671 6.2 248.818 6.2C248.165 6.2 247.598 6.35333 247.118 6.66C246.651 6.95333 246.285 7.38667 246.018 7.96C245.765 8.52 245.638 9.2 245.638 10C245.638 10.7867 245.771 11.4667 246.038 12.04C246.305 12.6133 246.678 13.0533 247.158 13.36C247.651 13.6533 248.238 13.8 248.918 13.8C249.651 13.8 250.245 13.66 250.698 13.38C251.165 13.1 251.538 12.72 251.818 12.24L253.078 12.98C252.825 13.4333 252.498 13.8267 252.098 14.16C251.711 14.4933 251.251 14.7533 250.718 14.94C250.198 15.1133 249.611 15.2 248.958 15.2ZM259.921 15.2C258.948 15.2 258.048 14.9933 257.221 14.58C256.408 14.1667 255.781 13.58 255.341 12.82L256.701 11.84C256.994 12.4533 257.421 12.9333 257.981 13.28C258.554 13.6267 259.241 13.8 260.041 13.8C260.748 13.8 261.301 13.6667 261.701 13.4C262.101 13.12 262.301 12.76 262.301 12.32C262.301 12.04 262.208 11.7867 262.021 11.56C261.848 11.32 261.508 11.1467 261.001 11.04L258.601 10.54C257.628 10.34 256.928 10.0067 256.501 9.54C256.088 9.07333 255.881 8.49333 255.881 7.8C255.881 7.25333 256.034 6.75333 256.341 6.3C256.661 5.84667 257.108 5.48667 257.681 5.22C258.268 4.94 258.954 4.8 259.741 4.8C260.728 4.8 261.561 4.99333 262.241 5.38C262.921 5.76667 263.428 6.31333 263.761 7.02L262.421 7.9C262.194 7.31333 261.828 6.88667 261.321 6.62C260.814 6.34 260.288 6.2 259.741 6.2C259.261 6.2 258.848 6.26667 258.501 6.4C258.168 6.53333 257.908 6.72 257.721 6.96C257.548 7.18667 257.461 7.44667 257.461 7.74C257.461 8.03333 257.561 8.30667 257.761 8.56C257.961 8.8 258.334 8.97333 258.881 9.08L261.381 9.6C262.314 9.78667 262.968 10.0933 263.341 10.52C263.714 10.9467 263.901 11.4667 263.901 12.08C263.901 12.7067 263.734 13.26 263.401 13.74C263.068 14.2067 262.601 14.5667 262.001 14.82C261.401 15.0733 260.708 15.2 259.921 15.2ZM271.048 15.2C270.101 15.2 269.254 14.9933 268.508 14.58C267.774 14.1667 267.201 13.5733 266.788 12.8C266.374 12.0133 266.168 11.08 266.168 10C266.168 8.92 266.374 7.99333 266.788 7.22C267.201 6.43333 267.768 5.83333 268.488 5.42C269.208 5.00667 270.028 4.8 270.948 4.8C271.881 4.8 272.674 5 273.328 5.4C273.994 5.8 274.501 6.34667 274.848 7.04C275.194 7.72 275.368 8.48667 275.368 9.34C275.368 9.56667 275.361 9.77333 275.348 9.96C275.334 10.1467 275.314 10.3133 275.288 10.46H267.208V9.04H274.588L273.768 9.2C273.768 8.24 273.501 7.5 272.968 6.98C272.448 6.46 271.761 6.2 270.908 6.2C270.254 6.2 269.688 6.35333 269.208 6.66C268.741 6.95333 268.374 7.38667 268.108 7.96C267.854 8.52 267.728 9.2 267.728 10C267.728 10.7867 267.861 11.4667 268.128 12.04C268.394 12.6133 268.768 13.0533 269.248 13.36C269.741 13.6533 270.328 13.8 271.008 13.8C271.741 13.8 272.334 13.66 272.788 13.38C273.254 13.1 273.628 12.72 273.908 12.24L275.168 12.98C274.914 13.4333 274.588 13.8267 274.188 14.16C273.801 14.4933 273.341 14.7533 272.808 14.94C272.288 15.1133 271.701 15.2 271.048 15.2ZM278.411 15V5H279.711L279.931 6.64C280.211 6.02667 280.617 5.56667 281.151 5.26C281.697 4.95333 282.357 4.8 283.131 4.8C283.304 4.8 283.491 4.81333 283.691 4.84C283.904 4.86667 284.084 4.92 284.231 5L283.951 6.46C283.804 6.40667 283.644 6.36667 283.471 6.34C283.297 6.31333 283.051 6.3 282.731 6.3C282.317 6.3 281.897 6.42 281.471 6.66C281.057 6.9 280.711 7.26667 280.431 7.76C280.151 8.24 280.011 8.85333 280.011 9.6V15H278.411ZM293.195 5H294.875L290.715 15H289.115L284.955 5H286.775L289.935 13.38L293.195 5ZM301.145 15.2C300.199 15.2 299.352 14.9933 298.605 14.58C297.872 14.1667 297.299 13.5733 296.885 12.8C296.472 12.0133 296.265 11.08 296.265 10C296.265 8.92 296.472 7.99333 296.885 7.22C297.299 6.43333 297.865 5.83333 298.585 5.42C299.305 5.00667 300.125 4.8 301.045 4.8C301.979 4.8 302.772 5 303.425 5.4C304.092 5.8 304.599 6.34667 304.945 7.04C305.292 7.72 305.465 8.48667 305.465 9.34C305.465 9.56667 305.459 9.77333 305.445 9.96C305.432 10.1467 305.412 10.3133 305.385 10.46H297.305V9.04H304.685L303.865 9.2C303.865 8.24 303.599 7.5 303.065 6.98C302.545 6.46 301.859 6.2 301.005 6.2C300.352 6.2 299.785 6.35333 299.305 6.66C298.839 6.95333 298.472 7.38667 298.205 7.96C297.952 8.52 297.825 9.2 297.825 10C297.825 10.7867 297.959 11.4667 298.225 12.04C298.492 12.6133 298.865 13.0533 299.345 13.36C299.839 13.6533 300.425 13.8 301.105 13.8C301.839 13.8 302.432 13.66 302.885 13.38C303.352 13.1 303.725 12.72 304.005 12.24L305.265 12.98C305.012 13.4333 304.685 13.8267 304.285 14.16C303.899 14.4933 303.439 14.7533 302.905 14.94C302.385 15.1133 301.799 15.2 301.145 15.2ZM312.408 15.2C311.582 15.2 310.822 14.9933 310.128 14.58C309.435 14.1667 308.882 13.5733 308.468 12.8C308.055 12.0133 307.848 11.08 307.848 10C307.848 8.89333 308.068 7.95333 308.508 7.18C308.948 6.40667 309.528 5.82 310.248 5.42C310.968 5.00667 311.742 4.8 312.568 4.8C313.395 4.8 314.108 5.01333 314.708 5.44C315.322 5.86667 315.728 6.43333 315.928 7.14L315.728 7.28V0.4H317.328V15H315.928L315.788 12.58L316.008 12.46C315.915 13.0467 315.688 13.5467 315.328 13.96C314.982 14.36 314.548 14.6667 314.028 14.88C313.522 15.0933 312.982 15.2 312.408 15.2ZM312.568 13.8C313.208 13.8 313.762 13.64 314.228 13.32C314.708 13 315.075 12.5467 315.328 11.96C315.595 11.36 315.728 10.66 315.728 9.86C315.728 9.1 315.595 8.44667 315.328 7.9C315.075 7.35333 314.715 6.93333 314.248 6.64C313.795 6.34667 313.262 6.2 312.648 6.2C311.635 6.2 310.848 6.54667 310.288 7.24C309.728 7.93333 309.448 8.85333 309.448 10C309.448 11.1467 309.722 12.0667 310.268 12.76C310.815 13.4533 311.582 13.8 312.568 13.8ZM321.848 12.6C322.234 12.6 322.548 12.72 322.788 12.96C323.028 13.2 323.148 13.5133 323.148 13.9C323.148 14.2867 323.028 14.6 322.788 14.84C322.548 15.08 322.234 15.2 321.848 15.2C321.461 15.2 321.148 15.08 320.908 14.84C320.668 14.6 320.548 14.2867 320.548 13.9C320.548 13.5133 320.668 13.2 320.908 12.96C321.148 12.72 321.461 12.6 321.848 12.6Z" fill="white"/>
</svg>
